<?xml version="1.0" encoding="utf-8"?>
<!-- Generator: Adobe Illustrator 17.0.0, SVG Export Plug-In . SVG Version: 6.00 Build 0)  -->
<!DOCTYPE svg PUBLIC "-//W3C//DTD SVG 1.1//EN" "http://www.w3.org/Graphics/SVG/1.1/DTD/svg11.dtd">
<svg version="1.1" id="图层_1" xmlns="http://www.w3.org/2000/svg" xmlns:xlink="http://www.w3.org/1999/xlink" x="0px" y="0px"
	 width="200px" height="200px" viewBox="0 0 200 200" enable-background="new 0 0 200 200" xml:space="preserve">
<path fill="#FFFFFF" d="M15.597,24.64V12.582h168.806V24.64H15.597z M27.654,109.043h6.029v-6.029h6.029v-6.029h6.029v-6.029h6.029
	v-6.029h6.029v-6.029h6.029V72.87h6.029v-6.029h6.029v-6.029h6.029v-6.029h6.029v-6.029h6.029v-6.029h12.058v6.029h6.029v6.029
	h6.029v6.029h6.029v6.029h6.029v6.029h6.029v6.029h6.029v6.029h6.03v6.029h6.029v6.029h6.029v6.029h6.029v6.029h6.029v6.029h6.029
	v12.058h-12.058V121.1h-6.029v-6.029h-6.029v-6.029h-6.029v-6.029h-6.029v-6.029h-6.029v-6.029h-6.029v-6.029h-6.029v-6.029h-6.029
	V72.87h-6.029v-6.029h-6.029l0,120.576H93.971V66.841h-6.029v6.029h-6.029v6.029h-6.029v6.029h-6.029v6.029h-6.029v6.029h-6.029
	v6.029H51.77v6.029h-6.029v6.029h-6.03v6.029h-6.029v6.029H21.626v-12.058h6.029L27.654,109.043L27.654,109.043z"/>
</svg>
